<mxfile host="Electron" modified="2024-02-07T13:54:20.717Z" agent="Mozilla/5.0 (Macintosh; Intel Mac OS X 10_15_7) AppleWebKit/537.36 (KHTML, like Gecko) draw.io/23.0.2 Chrome/120.0.6099.109 Electron/28.1.0 Safari/537.36" etag="X5HXg52LAkfspNftsfaI" version="23.0.2" type="device">
  <diagram name="Seite-1" id="Keyne2o810-CUxLRVL1m">
    <mxGraphModel dx="1026" dy="772" grid="1" gridSize="10" guides="1" tooltips="1" connect="1" arrows="1" fold="1" page="1" pageScale="1" pageWidth="827" pageHeight="1169" math="0" shadow="0">
      <root>
        <mxCell id="0" />
        <mxCell id="1" parent="0" />
        <mxCell id="07Hijn8fzL-eyK2ptyzz-1" value="secretary" style="shape=umlActor;verticalLabelPosition=bottom;verticalAlign=top;html=1;outlineConnect=0;" parent="1" vertex="1">
          <mxGeometry x="160" y="220" width="30" height="60" as="geometry" />
        </mxCell>
        <mxCell id="07Hijn8fzL-eyK2ptyzz-2" value="E-Mail Login" style="ellipse;whiteSpace=wrap;html=1;" parent="1" vertex="1">
          <mxGeometry x="390" y="50" width="170" height="80" as="geometry" />
        </mxCell>
        <mxCell id="07Hijn8fzL-eyK2ptyzz-3" value="Confirmation/correction of lists" style="ellipse;whiteSpace=wrap;html=1;" parent="1" vertex="1">
          <mxGeometry x="385" y="240" width="180" height="90" as="geometry" />
        </mxCell>
        <mxCell id="07Hijn8fzL-eyK2ptyzz-5" value="Upload Lists" style="ellipse;whiteSpace=wrap;html=1;" parent="1" vertex="1">
          <mxGeometry x="390" y="140" width="160" height="80" as="geometry" />
        </mxCell>
        <mxCell id="07Hijn8fzL-eyK2ptyzz-6" value="Overview of the lists" style="ellipse;whiteSpace=wrap;html=1;" parent="1" vertex="1">
          <mxGeometry x="395" y="350" width="155" height="90" as="geometry" />
        </mxCell>
        <mxCell id="07Hijn8fzL-eyK2ptyzz-7" value="" style="endArrow=classic;html=1;rounded=0;entryX=0;entryY=0.5;entryDx=0;entryDy=0;" parent="1" target="07Hijn8fzL-eyK2ptyzz-2" edge="1">
          <mxGeometry width="50" height="50" relative="1" as="geometry">
            <mxPoint x="210" y="250" as="sourcePoint" />
            <mxPoint x="290" y="160" as="targetPoint" />
          </mxGeometry>
        </mxCell>
        <mxCell id="07Hijn8fzL-eyK2ptyzz-8" value="" style="endArrow=classic;html=1;rounded=0;entryX=0;entryY=0.5;entryDx=0;entryDy=0;" parent="1" target="07Hijn8fzL-eyK2ptyzz-5" edge="1">
          <mxGeometry width="50" height="50" relative="1" as="geometry">
            <mxPoint x="210" y="250" as="sourcePoint" />
            <mxPoint x="300" y="270" as="targetPoint" />
          </mxGeometry>
        </mxCell>
        <mxCell id="07Hijn8fzL-eyK2ptyzz-9" value="" style="endArrow=classic;html=1;rounded=0;entryX=0;entryY=0.5;entryDx=0;entryDy=0;" parent="1" target="07Hijn8fzL-eyK2ptyzz-3" edge="1">
          <mxGeometry width="50" height="50" relative="1" as="geometry">
            <mxPoint x="210" y="250" as="sourcePoint" />
            <mxPoint x="397.5" y="250" as="targetPoint" />
          </mxGeometry>
        </mxCell>
        <mxCell id="07Hijn8fzL-eyK2ptyzz-10" value="" style="endArrow=classic;html=1;rounded=0;entryX=0;entryY=0.5;entryDx=0;entryDy=0;" parent="1" target="07Hijn8fzL-eyK2ptyzz-6" edge="1">
          <mxGeometry width="50" height="50" relative="1" as="geometry">
            <mxPoint x="210" y="250" as="sourcePoint" />
            <mxPoint x="397.5" y="355" as="targetPoint" />
          </mxGeometry>
        </mxCell>
      </root>
    </mxGraphModel>
  </diagram>
</mxfile>
